<svg xmlns="http://www.w3.org/2000/svg" width="120" height="120" viewBox="0 0 120 120">
  <defs>
    <radialGradient id="g" cx="50%" cy="50%" r="75%">
      <stop offset="0%" stop-color="#b38b2c" stop-opacity="0.22"/>
      <stop offset="100%" stop-color="#8a5a0a" stop-opacity="0.06"/>
    </radialGradient>
    <pattern id="p" width="120" height="120" patternUnits="userSpaceOnUse">
      <rect width="120" height="120" fill="url(#g)"/>
      <g fill="none" stroke="#7a3a2f" stroke-opacity="0.18" stroke-width="1">
        <path d="M60 10c20 12 20 36 0 48c-20-12-20-36 0-48z"/>
        <path d="M60 62c20 12 20 36 0 48c-20-12-20-36 0-48z"/>
        <path d="M10 60c12-20 36-20 48 0c-12 20-36 20-48 0z"/>
        <path d="M62 60c12-20 36-20 48 0c-12 20-36 20-48 0z"/>
        <circle cx="60" cy="60" r="6" fill="#7a3a2f" fill-opacity="0.2"/>
      </g>
    </pattern>
  </defs>
  <rect width="100%" height="100%" fill="url(#p)"/>
</svg>


